HIERARCHY
ROOT Hips
{
    OFFSET   0.000000   0.000000   0.000000
    CHANNELS 6 Xposition Yposition Zposition Zrotation Xrotation Yrotation
    JOINT Chest
    {
        OFFSET   0.000000   8.007230   0.000000
        CHANNELS 3 Zrotation Xrotation Yrotation
        JOINT Chest2
        {
            OFFSET   0.000000  22.077100   0.000000
            CHANNELS 3 Zrotation Xrotation Yrotation
            JOINT Neck
            {
                OFFSET   0.000000  23.254700   0.000000
                CHANNELS 3 Zrotation Xrotation Yrotation
                JOINT Head
                {
                    OFFSET   0.000010  14.370000   1.956610
                    CHANNELS 3 Zrotation Xrotation Yrotation
                    End Site
                    {
                        OFFSET   0.000000  19.566000   0.000000
                    }
                }
            }
            JOINT LeftCollar
            {
                OFFSET   3.911900  19.017000  -0.467063
                CHANNELS 3 Zrotation Xrotation Yrotation
                JOINT LeftShoulder
                {
                    OFFSET  10.383700   0.000000   0.000000
                    CHANNELS 3 Zrotation Xrotation Yrotation
                    JOINT LeftElbow
                    {
                        OFFSET  26.662100   0.001671   0.000522
                        CHANNELS 3 Zrotation Xrotation Yrotation
                        JOINT LeftWrist
                        {
                            OFFSET  28.869000   0.000037  -0.000114
                            CHANNELS 3 Zrotation Xrotation Yrotation
                            JOINT LeftFinger0
                            {
                                OFFSET   2.044650  -2.323450   3.252850
                                CHANNELS 3 Zrotation Xrotation Yrotation
                                JOINT LeftFinger01
                                {
                                    OFFSET   3.088140   0.000000   0.000000
                                    CHANNELS 3 Zrotation Xrotation Yrotation
                                    JOINT LeftFinger02
                                    {
                                        OFFSET   2.639460   0.000000   0.000000
                                        CHANNELS 3 Zrotation Xrotation Yrotation
                                        End Site
                                        {
                                            OFFSET   2.582190   0.000000   0.000000
                                        }
                                    }
                                }
                            }
                            JOINT LeftFinger1
                            {
                                OFFSET   8.364480   0.000000   3.252850
                                CHANNELS 3 Zrotation Xrotation Yrotation
                                JOINT LeftFinger11
                                {
                                    OFFSET   4.646930   0.000000   0.000000
                                    CHANNELS 3 Zrotation Xrotation Yrotation
                                    JOINT LeftFinger12
                                    {
                                        OFFSET   2.323470   0.000000   0.000000
                                        CHANNELS 3 Zrotation Xrotation Yrotation
                                        End Site
                                        {
                                            OFFSET   2.273050   0.000000   0.000000
                                        }
                                    }
                                }
                            }
                            JOINT LeftFinger2
                            {
                                OFFSET   8.364490   0.000016   1.078090
                                CHANNELS 3 Zrotation Xrotation Yrotation
                                JOINT LeftFinger21
                                {
                                    OFFSET   5.111620   0.000000   0.000000
                                    CHANNELS 3 Zrotation Xrotation Yrotation
                                    JOINT LeftFinger22
                                    {
                                        OFFSET   2.788150   0.000013   0.000000
                                        CHANNELS 3 Zrotation Xrotation Yrotation
                                        End Site
                                        {
                                            OFFSET   2.727660   0.000000   0.000000
                                        }
                                    }
                                }
                            }
                            JOINT LeftFinger3
                            {
                                OFFSET   7.899780   0.000016  -1.078090
                                CHANNELS 3 Zrotation Xrotation Yrotation
                                JOINT LeftFinger31
                                {
                                    OFFSET   4.646930   0.000000   0.000000
                                    CHANNELS 3 Zrotation Xrotation Yrotation
                                    JOINT LeftFinger32
                                    {
                                        OFFSET   2.323470   0.000000   0.000000
                                        CHANNELS 3 Zrotation Xrotation Yrotation
                                        End Site
                                        {
                                            OFFSET   2.273050   0.000000   0.000000
                                        }
                                    }
                                }
                            }
                            JOINT LeftFinger4
                            {
                                OFFSET   7.435080   0.000000  -3.252850
                                CHANNELS 3 Zrotation Xrotation Yrotation
                                JOINT LeftFinger41
                                {
                                    OFFSET   3.717550   0.000000   0.000000
                                    CHANNELS 3 Zrotation Xrotation Yrotation
                                    JOINT LeftFinger42
                                    {
                                        OFFSET   1.858760   0.000000   0.000000
                                        CHANNELS 3 Zrotation Xrotation Yrotation
                                        End Site
                                        {
                                            OFFSET   1.818440   0.000000   0.000000
                                        }
                                    }
                                }
                            }
                        }
                    }
                }
            }
            JOINT RightCollar
            {
                OFFSET  -3.911900  19.017000  -0.467064
                CHANNELS 3 Zrotation Xrotation Yrotation
                JOINT RightShoulder
                {
                    OFFSET -10.383700   0.000000   0.000000
                    CHANNELS 3 Zrotation Xrotation Yrotation
                    JOINT RightElbow
                    {
                        OFFSET -26.662100   0.001633   0.000260
                        CHANNELS 3 Zrotation Xrotation Yrotation
                        JOINT RightWrist
                        {
                            OFFSET -28.869000  -0.000045  -0.000080
                            CHANNELS 3 Zrotation Xrotation Yrotation
                            JOINT RightFinger0
                            {
                                OFFSET  -2.044660  -2.323490   3.252850
                                CHANNELS 3 Zrotation Xrotation Yrotation
                                JOINT RightFinger01
                                {
                                    OFFSET  -3.088140   0.000000   0.000000
                                    CHANNELS 3 Zrotation Xrotation Yrotation
                                    JOINT RightFinger02
                                    {
                                        OFFSET  -2.639450   0.000000   0.000000
                                        CHANNELS 3 Zrotation Xrotation Yrotation
                                        End Site
                                        {
                                            OFFSET  -2.582190   0.000000   0.000000
                                        }
                                    }
                                }
                            }
                            JOINT RightFinger1
                            {
                                OFFSET  -8.364480   0.000000   3.252850
                                CHANNELS 3 Zrotation Xrotation Yrotation
                                JOINT RightFinger11
                                {
                                    OFFSET  -4.646920   0.000000   0.000000
                                    CHANNELS 3 Zrotation Xrotation Yrotation
                                    JOINT RightFinger12
                                    {
                                        OFFSET  -2.323470   0.000000   0.000000
                                        CHANNELS 3 Zrotation Xrotation Yrotation
                                        End Site
                                        {
                                            OFFSET  -2.273050   0.000000   0.000000
                                        }
                                    }
                                }
                            }
                            JOINT RightFinger2
                            {
                                OFFSET  -8.364480   0.000000   1.078090
                                CHANNELS 3 Zrotation Xrotation Yrotation
                                JOINT RightFinger21
                                {
                                    OFFSET  -5.111610   0.000000   0.000000
                                    CHANNELS 3 Zrotation Xrotation Yrotation
                                    JOINT RightFinger22
                                    {
                                        OFFSET  -2.788160   0.000000   0.000000
                                        CHANNELS 3 Zrotation Xrotation Yrotation
                                        End Site
                                        {
                                            OFFSET  -2.727660   0.000000   0.000000
                                        }
                                    }
                                }
                            }
                            JOINT RightFinger3
                            {
                                OFFSET  -7.899780   0.000000  -1.078090
                                CHANNELS 3 Zrotation Xrotation Yrotation
                                JOINT RightFinger31
                                {
                                    OFFSET  -4.646930   0.000000   0.000000
                                    CHANNELS 3 Zrotation Xrotation Yrotation
                                    JOINT RightFinger32
                                    {
                                        OFFSET  -2.323470   0.000000   0.000000
                                        CHANNELS 3 Zrotation Xrotation Yrotation
                                        End Site
                                        {
                                            OFFSET  -2.273050   0.000000   0.000000
                                        }
                                    }
                                }
                            }
                            JOINT RightFinger4
                            {
                                OFFSET  -7.435090   0.000000  -3.252850
                                CHANNELS 3 Zrotation Xrotation Yrotation
                                JOINT RightFinger41
                                {
                                    OFFSET  -3.717550   0.000000   0.000000
                                    CHANNELS 3 Zrotation Xrotation Yrotation
                                    JOINT RightFinger42
                                    {
                                        OFFSET  -1.858760   0.000000   0.000000
                                        CHANNELS 3 Zrotation Xrotation Yrotation
                                        End Site
                                        {
                                            OFFSET  -1.818440   0.000000   0.000000
                                        }
                                    }
                                }
                            }
                        }
                    }
                }
            }
        }
    }
    JOINT LeftHip
    {
        OFFSET   9.782990   0.000000   0.000000
        CHANNELS 3 Zrotation Xrotation Yrotation
        JOINT LeftKnee
        {
            OFFSET  -0.000063 -41.789100   0.001657
            CHANNELS 3 Zrotation Xrotation Yrotation
            JOINT LeftAnkle
            {
                OFFSET   0.000078 -41.133200  -0.000113
                CHANNELS 3 Zrotation Xrotation Yrotation
                JOINT LeftToe
                {
                    OFFSET   0.000000  -6.358970  14.674500
                    CHANNELS 3 Zrotation Xrotation Yrotation
                    End Site
                    {
                        OFFSET   0.000000   0.000000   3.913200
                    }
                }
            }
        }
    }
    JOINT RightHip
    {
        OFFSET  -9.782990   0.000000   0.000000
        CHANNELS 3 Zrotation Xrotation Yrotation
        JOINT RightKnee
        {
            OFFSET   0.000053 -41.789200   0.000277
            CHANNELS 3 Zrotation Xrotation Yrotation
            JOINT RightAnkle
            {
                OFFSET   0.000030 -41.133200  -0.000150
                CHANNELS 3 Zrotation Xrotation Yrotation
                JOINT RightToe
                {
                    OFFSET   0.000000  -6.358960  14.674500
                    CHANNELS 3 Zrotation Xrotation Yrotation
                    End Site
                    {
                        OFFSET   0.000000   0.000000   3.913200
                    }
                }
            }
        }
    }
}
MOTION
Frames: 5
Frame Time:   0.016667
  2.070180  89.484300  -0.456187  -4.320120 -16.919600  -2.270340   0.478003   8.547120   1.041760   0.810504  17.101400   2.045220   3.185610  -1.658810   0.088993   5.245580  -3.332690   7.259590   8.231100   0.434825  -0.885155 -43.713300   0.881487 -89.188500  21.717600 -32.919100 -94.194700  10.955600 -32.408800   2.694190  37.602600  32.694000 -68.242300 -31.565000  -0.002363  -0.000442 -10.782500   0.003794   0.000174 -28.754600   1.930280  -3.511960 -23.574900   0.004005  -0.002468 -16.502500  -0.000585   0.000000 -27.541600  -0.610291   1.170400 -29.435100   0.001446   0.001275 -19.603800  -0.001318   0.001062 -26.414000  -1.450350   2.917680 -26.450900   0.000189  -0.000749 -17.616300   0.008152   0.003152 -28.037900  -1.996930   3.743780 -42.154700   0.000355  -0.002074 -28.075000   0.002834   0.000401  -7.525360  -4.840440   3.381590  33.038000   0.861210  80.176800 -34.800400 -50.946700  74.647100  -0.412314 -51.404900   4.702090 -44.603900  36.136400  72.740700  24.155000   0.006305  -0.002825   7.077490   0.005343   0.001363  23.380800   4.911380  11.201400  19.524000   0.007325   0.001468  13.666800   0.004144  -0.000535  24.062200   2.105500   4.703040  24.148100  -0.001632  -0.003118  16.082600  -0.002218   0.003058  20.962400  -0.029522  -0.077442  20.962200   0.002799  -0.002350  13.960800   0.001609  -0.001979  28.230900  -0.039043  -0.073105  42.345900  -0.001498  -0.002616  28.202400  -0.001181  -0.001809   2.084040  19.559400   3.635360   0.633510   0.004716   2.836720  -0.484430  -3.221560   0.340210   0.000000   0.000000  -0.000000   3.984070  18.432000  -2.845970  -1.053010   4.006130  -5.829820  -0.459290  -5.848350   0.167765   0.000000   0.000000  -0.000000
  2.074820  89.483800  -0.438920  -4.324540 -16.907200  -2.282610   0.485243   8.504960   1.039580   0.826495  17.017200   2.039790   3.158940  -1.646470   0.088204   5.201780  -3.308580   7.100440   8.180680   0.429088  -0.907036 -43.735300   0.859008 -89.126300  21.741900 -32.920300 -94.176600  10.888800 -32.467600   2.648410  37.783300  32.851100 -68.160100 -31.539000  -0.002418  -0.000491 -10.769500   0.003856   0.000178 -28.685100   1.991740  -3.635140 -23.522100   0.004006  -0.002422 -16.465500  -0.000468   0.000045 -27.501900  -0.570581   1.096680 -29.234600   0.001420   0.001227 -19.470300  -0.001258   0.001029 -26.328400  -1.382750   2.789740 -26.362100   0.000121  -0.000709 -17.557200   0.008283   0.003111 -27.832900  -1.976250   3.744810 -41.846400   0.000291  -0.002099 -27.869600   0.002827   0.000364  -7.499360  -4.809020   3.381140  32.997200   0.890601  80.176200 -34.881100 -51.006800  74.718100  -0.849246 -51.116100   4.322940 -44.652100  36.347500  72.690900  24.470000   0.006297  -0.002898   7.234970   0.005385   0.001438  23.375700   4.896930  11.173400  19.519300   0.007454   0.001447  13.663500   0.004122  -0.000588  24.006600   2.006530   4.494880  24.086000  -0.001626  -0.003248  16.041300  -0.002218   0.003089  20.929100  -0.067033  -0.175140  20.929300   0.002869  -0.002403  13.938900   0.001645  -0.002025  28.191000  -0.088651  -0.165225  42.286700  -0.001394  -0.002655  28.163000  -0.001252  -0.001831   2.079290  19.559000   3.636840   0.629056   0.003300   2.861640  -0.484983  -3.225480   0.330777   0.000000   0.000000   0.000000   3.986860  18.431400  -2.822490  -1.057900   4.003430  -5.842080  -0.458493  -5.856790   0.167334  -0.000000   0.000000   0.000000
  2.079470  89.483200  -0.420491  -4.328360 -16.889200  -2.290300   0.492142   8.457520   1.033590   0.841988  16.922400   2.026500   3.130470  -1.620010   0.087113   5.154280  -3.255780   6.958490   8.127280   0.423353  -0.917127 -43.761300   0.828527 -89.058100  21.766100 -32.921600 -94.158500  10.760000 -32.499500   2.567120  38.002700  33.058700 -68.087700 -31.497000  -0.002471  -0.000537 -10.748500   0.003916   0.000184 -28.537700   2.057100  -3.775870 -23.404800   0.004006  -0.002377 -16.383300  -0.000353   0.000087 -27.443300  -0.496814   0.957541 -28.946200   0.001395   0.001180 -19.278200  -0.001197   0.000996 -26.187500  -1.329000   2.700250 -26.218900   0.000062  -0.000668 -17.461800   0.008410   0.003071 -27.589500  -1.963540   3.752320 -41.480600   0.000230  -0.002124 -27.626000   0.002819   0.000330  -7.471950  -4.764730   3.378850  32.906700   0.917466  80.175500 -35.007200 -51.086200  74.769200  -1.357710 -50.884400   3.833560 -44.697500  36.568500  72.627900  24.736700   0.006287  -0.002928   7.368320   0.005431   0.001517  23.338900   4.882270  11.157800  19.486700   0.007582   0.001428  13.640600   0.004098  -0.000642  23.970300   1.934830   4.343180  24.043900  -0.001620  -0.003377  16.013300  -0.002215   0.003118  20.893200  -0.094447  -0.246541  20.893800   0.002939  -0.002456  13.915300   0.001680  -0.002069  28.166100  -0.124927  -0.232568  42.250100  -0.001292  -0.002691  28.138600  -0.001325  -0.001853   2.076500  19.556500   3.638280   0.622750   0.003098   2.887550  -0.486282  -3.240010   0.311936  -0.000000   0.000000   0.000000   3.991230  18.425500  -2.798400  -1.062060   3.999270  -5.853690  -0.458640  -5.864240   0.164535  -0.000000   0.000000  -0.000000
  2.084070  89.482800  -0.401352  -4.333310 -16.858900  -2.296590   0.497723   8.400350   1.023740   0.854844  16.808100   2.005610   3.100440  -1.585700   0.085245   5.104620  -3.187230   6.871420   8.070600   0.451971  -0.906792 -43.730300   0.804121 -88.988900  21.771100 -32.910800 -94.175600  10.568900 -32.431900   2.416200  38.220800  33.303500 -68.033600 -31.458800  -0.002522  -0.000579 -10.729400   0.003965   0.000187 -28.319100   2.113820  -3.915360 -23.229600   0.004005  -0.002334 -16.260700  -0.000237   0.000150 -27.356700  -0.405252   0.783780 -28.538400   0.001368   0.001136 -19.006600  -0.001134   0.000965 -26.025500  -1.323140   2.712130 -26.057400   0.000033  -0.000630 -17.354200   0.008515   0.003027 -27.346400  -1.977140   3.811760 -41.117700   0.000173  -0.002150 -27.384300   0.002809   0.000301  -7.441000  -4.705070   3.360530  32.814700   0.931292  80.150300 -35.183400 -51.162100  74.809500  -1.904910 -50.711800   3.258230 -44.760600  36.771100  72.561900  24.890500   0.006283  -0.002900   7.445200   0.005483   0.001604  23.215000   4.940380  11.346100  19.394900   0.007705   0.001422  13.576300   0.004075  -0.000698  23.969000   1.943050   4.367940  24.041700  -0.001614  -0.003504  16.011800  -0.002210   0.003144  20.859100  -0.060615  -0.157454  20.859400   0.003012  -0.002509  13.892400   0.001710  -0.002116  28.136400  -0.080117  -0.148447  42.205100  -0.001188  -0.002718  28.108600  -0.001400  -0.001878   2.087410  19.522800   3.633470   0.606193   0.045416   2.919370  -0.489572  -3.275850   0.288788  -0.000000   0.000000   0.000000   3.996070  18.410900  -2.770490  -1.064290   3.991290  -5.864720  -0.459631  -5.869300   0.156184  -0.000000   0.000000   0.000000
  2.086620  89.482600  -0.381383  -4.340280 -16.819300  -2.303520   0.501916   8.336050   1.010740   0.867306  16.679500   1.978710   3.073870  -1.545840   0.083003   5.060210  -3.107460   6.836930   8.016590   0.516000  -0.876807 -43.911400   0.795562 -88.916100  21.784800 -32.867800 -94.247800  10.370700 -32.265000   2.235920  38.460900  33.507200 -67.961900 -31.436600  -0.002578  -0.000621 -10.718300   0.004016   0.000189 -28.107100   2.161190  -4.037640 -23.059300   0.004005  -0.002290 -16.141500  -0.000124   0.000216 -27.263700  -0.316363   0.614592 -28.112400   0.001342   0.001092 -18.722900  -0.001068   0.000933 -25.854800  -1.319510   2.724010 -25.886700   0.000000  -0.000591 -17.240500   0.008627   0.002987 -27.092700  -2.003410   3.911010 -40.741200   0.000117  -0.002174 -27.133600   0.002800   0.000274  -7.409730  -4.620220   3.337120  32.718700   0.948502  80.098200 -35.381200 -51.214500  74.867800  -2.485910 -50.640300   2.667000 -44.913900  36.880600  72.523100  24.980100   0.006281  -0.002871   7.490050   0.005536   0.001692  23.068800   5.040240  11.656900  19.295800   0.007827   0.001419  13.507000   0.004051  -0.000753  23.964700   1.977660   4.440930  24.041400  -0.001608  -0.003631  16.011600  -0.002203   0.003167  20.840300  -0.002592  -0.005549  20.840300   0.003084  -0.002561  13.879600   0.001740  -0.002161  28.120500  -0.003348  -0.005113  42.180800  -0.001084  -0.002741  28.092400  -0.001475  -0.001900   2.110950  19.474200   3.622120   0.582605   0.087732   2.954160  -0.493559  -3.306460   0.264944  -0.000000   0.000000  -0.000000   4.006010  18.387600  -2.752600  -1.067220   3.980720  -5.870600  -0.461433  -5.872870   0.148822  -0.000000   0.000000   0.000000
